/* XPM */
static char *result[] = {
/* columns rows colors chars-per-pixel */
"64 64 47 1 ",
"  c gray47",
". c #DED353",
"X c #EDE04E",
"o c #C1B95D",
"O c #FEEF48",
"+ c #CBC25A",
"@ c #828174",
"# c #7B7A6D",
"$ c #6F6F6F",
"% c #747474",
"& c gray44",
"* c #C8BF56",
"= c #888672",
"- c #7D7B66",
"; c gray42",
": c gray45",
"> c #6C6C6C",
", c #C6BD55",
"< c #EBDE4E",
"1 c #8A8871",
"2 c #AAA466",
"3 c #B4AD62",
"4 c #817F6A",
"5 c #A9A362",
"6 c #C9C058",
"7 c #BDB459",
"8 c #A39F68",
"9 c #EDDF4D",
"0 c #EBDE4C",
"q c #858371",
"w c #767676",
"e c #777777",
"r c gray43",
"t c #EFE14D",
"y c #868472",
"u c #84826D",
"i c #97936C",
"p c #7D7C6F",
"a c #787875",
"s c #6D6D6A",
"d c #7B7967",
"f c #7A7977",
"g c #D2C757",
"h c #868572",
"j c #C0B85D",
"k c #F7E94A",
"l c #A49E5D",
/* pixels */
"                                                                ",
"                                                                ",
"                                                                ",
"   .XXXXXXXX.                                         oXXXXX.   ",
"   XOOOOOOOOX                                         +OOOOOX   ",
"   XOOOOOOOOX                                         +OOOOOX   ",
"   XOOOOOOOOX               @++++++#$$%            &$$*OOOOOX   ",
"   XOOOOOOOOX               =OOOOOO-;;:            >;;,OOOOOX   ",
"   XOOOOOOOOX               =OOOOOO-;;:            >;;,OOOOOX   ",
"   XOOOOO<++o            1223OOOOOO4$$%            &$$5++6,,7   ",
"   XOOOOO+               2OOOOOOOOO=                     :;;>   ",
"   XOOOOO+               2OOOOOOOOO=                     :;;>   ",
"   .XXXXXo               8XX9000000qwwe                  :>>r   ",
"                            w;;;;;;;;;:                         ",
"                            w;;;;;;;;;:                         ",
"                            w;;;;;;;;;:                         ",
"         :;;-OOOOOO=                     2OOOOOO;;;w            ",
"         :;;-OOOOOO=                     2OOOOOO;;;w            ",
"         :;;-OOOOOO=                     2OOOOOO;;;w            ",
"         :;;-OOOOOOtXX8                  2OOOOOO000y            ",
"         :;;-OOOOOOOOO2                  2OOOOOOOOO=            ",
"         :;;-OOOOOOOOO2                  2OOOOOOOOO=            ",
"         w::uOOOOOOOOO2                  2OOOOOOOOO=            ",
"            =OOOOOOOOO2                  2OOOOOOOOO=            ",
"            =OOOOOOOOO2                  2OOOOOOOOO=            ",
"            @+++++++++i         ::::::w  2OOOOOO,,,p::w         ",
"                                ;;;;;;:  2OOOOOO;;;;;;:         ",
"                                ;;;;;;:  2OOOOOO;;;;;;:         ",
"                         ewwa===---s;;:  8XXXXXX>>>>>>:         ",
"                         :;;-OOOOOO-;;:                         ",
"                         :;;-OOOOOO-;;:                         ",
"                         :;;-OOOOOO-;;:                         ",
"         :;;;;;;         :;;>   OOO=                            ",
"         :;;;;;;         :;;>   OOO=                            ",
"         :;;;;;;         :;;>   OOO=                            ",
"      &>>>;;d000XXXXXX8  ewww   ===f                            ",
"      $;;;;;-OOOOOOOOO2                                         ",
"      $;;;;;-OOOOOOOOO2                                         ",
"      %:::::uOOOOOOOOO2                                         ",
"            =OOOOOOOOO2                                         ",
"            =OOOOOOOOO2                                         ",
"      %::%  =OOOOOOg++i               i222228   ::::::w         ",
"      $;;$  =OOOOOO=                  +OOOOOX   ;;;;;;:         ",
"      $;;$  =OOOOOO=                  +OOOOOX   ;;;;;;:         ",
"   www$;;$  hXXXXXXh        ewwwwwwe  +OOOOOt===;;;;;;:         ",
"   >;;;;;$                  w;;;;;;w  +OOOOOOOOO;;;;;;:         ",
"   >;;;;;$                  w;;;;;;w  +OOOOOOOOO;;;;;;:         ",
"   >;;;;;$                  w;;;;;;w  +OOOOOOOOO;;;;;;:         ",
"   >;;:                     w;;;;;;w                            ",
"   >;;:                     w;;;;;;w                            ",
"   >;;:                     w;;;;;;w                            ",
"   wwwjXXXXX.               y000000y               .XXXXXo      ",
"      +OOOOOX               =OOOOOO=               XOOOOO+      ",
"      +OOOOOX               =OOOOOO=               XOOOOO+      ",
"   &$$*OOOOOX               =OOOOOO=            +++kOOOOO*$$&   ",
"   >;;,OOOOOX               =OOOOOO=            OOOOOOOOO,;;>   ",
"   >;;,OOOOOX               =OOOOOO=            OOOOOOOOO,;;>   ",
"   >;;l,,*++o               @++++++@            ,,,,,,,,,l;;>   ",
"   >;;;;;$                                      ;;;;;;;;;;;;>   ",
"   >;;;;;$                                      ;;;;;;;;;;;;>   ",
"   r>>>>>&                                      >>>>>>>>>>>>r   ",
"                                                                ",
"                                                                ",
"                                                                "
};
