/* XPM */
static char *_e7bbd8fb3e44f5d933b81cdff8fb469TzmySpxzQ5pux0Bc[] = {
/* columns rows colors chars-per-pixel */
"80 80 3 1 ",
"  c gray42",
". c gray47",
"X c #FEEF48",
/* pixels */
"................................................................................",
"................................................................................",
"................................................................................",
"................................................................................",
"....XXXXXXXXXXXX....................................................XXXXXXXX....",
"....XXXXXXXXXXXX....................................................XXXXXXXX....",
"....XXXXXXXXXXXX....................................................XXXXXXXX....",
"....XXXXXXXXXXXX....................................................XXXXXXXX....",
"....XXXXXXXXXXXX....................XXXXXXXX    ................    XXXXXXXX....",
"....XXXXXXXXXXXX....................XXXXXXXX    ................    XXXXXXXX....",
"....XXXXXXXXXXXX....................XXXXXXXX    ................    XXXXXXXX....",
"....XXXXXXXXXXXX....................XXXXXXXX    ................    XXXXXXXX....",
"....XXXXXXXX....................XXXXXXXXXXXX............................    ....",
"....XXXXXXXX....................XXXXXXXXXXXX............................    ....",
"....XXXXXXXX....................XXXXXXXXXXXX............................    ....",
"....XXXXXXXX....................XXXXXXXXXXXX............................    ....",
"....................................            ................................",
"....................................            ................................",
"....................................            ................................",
"....................................            ................................",
"............    XXXXXXXX............................XXXXXXXX    ................",
"............    XXXXXXXX............................XXXXXXXX    ................",
"............    XXXXXXXX............................XXXXXXXX    ................",
"............    XXXXXXXX............................XXXXXXXX    ................",
"............    XXXXXXXXXXXX........................XXXXXXXXXXXX................",
"............    XXXXXXXXXXXX........................XXXXXXXXXXXX................",
"............    XXXXXXXXXXXX........................XXXXXXXXXXXX................",
"............    XXXXXXXXXXXX........................XXXXXXXXXXXX................",
"................XXXXXXXXXXXX........................XXXXXXXXXXXX................",
"................XXXXXXXXXXXX........................XXXXXXXXXXXX................",
"................XXXXXXXXXXXX........................XXXXXXXXXXXX................",
"................XXXXXXXXXXXX........................XXXXXXXXXXXX................",
"........................................        ....XXXXXXXX        ............",
"........................................        ....XXXXXXXX        ............",
"........................................        ....XXXXXXXX        ............",
"........................................        ....XXXXXXXX        ............",
"................................    XXXXXXXX    ................................",
"................................    XXXXXXXX    ................................",
"................................    XXXXXXXX    ................................",
"................................    XXXXXXXX    ................................",
"............        ............    ....XXXX....................................",
"............        ............    ....XXXX....................................",
"............        ............    ....XXXX....................................",
"............        ............    ....XXXX....................................",
"........        XXXXXXXXXXXX....................................................",
"........        XXXXXXXXXXXX....................................................",
"........        XXXXXXXXXXXX....................................................",
"........        XXXXXXXXXXXX....................................................",
"................XXXXXXXXXXXX....................................................",
"................XXXXXXXXXXXX....................................................",
"................XXXXXXXXXXXX....................................................",
"................XXXXXXXXXXXX....................................................",
"........    ....XXXXXXXX........................XXXXXXXX....        ............",
"........    ....XXXXXXXX........................XXXXXXXX....        ............",
"........    ....XXXXXXXX........................XXXXXXXX....        ............",
"........    ....XXXXXXXX........................XXXXXXXX....        ............",
"....        ........................        ....XXXXXXXXXXXX        ............",
"....        ........................        ....XXXXXXXXXXXX        ............",
"....        ........................        ....XXXXXXXXXXXX        ............",
"....        ........................        ....XXXXXXXXXXXX        ............",
"....    ............................        ....................................",
"....    ............................        ....................................",
"....    ............................        ....................................",
"....    ............................        ....................................",
"........XXXXXXXX....................XXXXXXXX....................XXXXXXXX........",
"........XXXXXXXX....................XXXXXXXX....................XXXXXXXX........",
"........XXXXXXXX....................XXXXXXXX....................XXXXXXXX........",
"........XXXXXXXX....................XXXXXXXX....................XXXXXXXX........",
"....    XXXXXXXX....................XXXXXXXX................XXXXXXXXXXXX    ....",
"....    XXXXXXXX....................XXXXXXXX................XXXXXXXXXXXX    ....",
"....    XXXXXXXX....................XXXXXXXX................XXXXXXXXXXXX    ....",
"....    XXXXXXXX....................XXXXXXXX................XXXXXXXXXXXX    ....",
"....        ................................................                ....",
"....        ................................................                ....",
"....        ................................................                ....",
"....        ................................................                ....",
"................................................................................",
"................................................................................",
"................................................................................",
"................................................................................"
};
