/* XPM */
static char *_6ddd205f09c45abecbd649961e3e8ffWOQN7zYXTuj6Pcce[] = {
/* columns rows colors chars-per-pixel */
"80 80 34 1 ",
"  c #83924C",
". c #788545",
"X c #596434",
"o c #3A4021",
"O c #2B3019",
"+ c black",
"@ c #0E1008",
"# c #67733C",
"$ c #4C552C",
"% c #1D2010",
"& c #758344",
"* c #6C793F",
"= c #202312",
"- c #080904",
"; c #27291E",
": c #33352A",
"> c #6C715A",
", c #808865",
"< c #474841",
"1 c #585B4D",
"2 c #818C55",
"3 c #1A1A19",
"4 c #767C5C",
"5 c #32332F",
"6 c #7D865B",
"7 c #131311",
"8 c #090A05",
"9 c #0F0F0D",
"0 c #353A1E",
"q c #1D2011",
"w c #13150B",
"e c #15170D",
"r c #4B4E3F",
"t c #849057",
/* pixels */
"                                                                                ",
"                                                                                ",
"                                                                                ",
"                                                                                ",
"                                                                                ",
"                               .XoOO+++++++OOoX.                                ",
"                            XO@+++++++++++++++++@OX                             ",
"                         #O+++++++++++++++++++++++++O#                          ",
"                       $@+++++++++++++++++++++++++++++@$                        ",
"                     $@+++++++++++++++++++++++++++++++++@$                      ",
"                   #%+++++++++++++++++++++++++++++++++++++%#                    ",
"                  o+++++++++++++++++++++++++++++++++++++++++o                   ",
"                &%+++++++++++++++++++++++++++++++++++++++++++%&                 ",
"               #@+++++++++++++++++++++++++++++++++++++++++++++@#                ",
"              X+++++++++++++++++++++++++++++++++++++++++++++++++X               ",
"             X+++++++++++++++++++++++++++++++++++++++++++++++++++X              ",
"            X+++++++++++++++++++++++++++++++++++++++++++++++++++++X             ",
"           &+++++++++++++++++++++++++++++++++++++++++++++++++++++++&            ",
"          &@+++++++++++++++++++++++++++++++++++++++++++++++++++++++@&           ",
"          O+++++++++++++++++++++++++++++++++++++++++++++++++++++++++O           ",
"         $+++++++++++++++++++++++++++++++++++++++++++++++++++++++++++$          ",
"        &+++++++++++++++++++++++++++++++++++++++++++++++++++++++++++++&         ",
"        O+++++++++++++++++++++++++++++++++++++++++++++++++++++++++++++O         ",
"       #+++++++++++++++++++++++++++++++++++++++++++++++++++++++++++++++#        ",
"       %+++++++++++++++++++++++++++++++++++++++++++++++++++++++++++++++%        ",
"      #+++++++++++++++++++++++++++++++++++++++++++++++++++++++++++++++++#       ",
"      O+++++++++++++++++++++++++++++++++++++++++++++++++++++++++++++++++O       ",
"      +++++++++++++++++++++++++++++++++++++++++++++++++++++++++++++++++++       ",
"     X+++++++++++++++++++++++++++++++++++++++++++++++++++++++++++++++++++X      ",
"     O+++++++++++++++++++++++++++++++++++++++++++++++++++++++++++++++++++O      ",
"     +++++++++++++++++++++++++++++++++++++++++++++++++++++++++++++++++++++      ",
"    *+++++++++++++++++++++++++++++++++++++++++++++++++++++++++++++++++++++*     ",
"    X+++++++++++++++++++++++++++++++++++++++++++++++++++++++++++++++++++++X     ",
"    O+++++++++++++++++++++++++++++++++++++++++++++++++++++++++++++++++++++O     ",
"    O+++++++++++++++++++++++++++++++++++++++++++++++++++++++++++++++++++++=     ",
"    @+++++++++++++++++++++++++++++++++++++++++++++++++++++++++++++++++++++-     ",
"    +++++++++++++++++++++++++++++++++++++++++++++++++++++++++++++++++++++++     ",
"    +++++++++++++++++++++++++++++++++++++++++++++++++++++++++++++++++++++++     ",
"    +++++++++++++++++++++++++++++++++++++++++++++++++++++++++++++++++++++++     ",
"    +++++++++++++++++++++++++++++++++++++++++++++++++++++++++++++++++++++++     ",
"    +++++++++++++++++++++++++++++++++++++++++++++++++++++++++++++++++++++++     ",
"    @++++++++++++++++++++++++++++++++++++++++++++++++++++++++++++++++++++++     ",
"    O++++++++++++++++++++++++++++++++++++++++++++++++++++++++++++++++++++++     ",
"    O++++++++++++++++++++++++++++++++++++++++++++++++++++++++++++++++++++++     ",
"    X+++++++++++++++++++++++++++++++++++++++++++++++++++++++++++++++++++++;     ",
"    *+++++++++++++++++++++++++++++++++++++++++++++++++++++++++++++++++++++:     ",
"     +++++++++++++++++++++++++++++++++++++++++++++++++++++++++++++++++++++>     ",
"     O++++++++++++++++++++++++++++++++++++++++++++++++++++++++++++++++++++,     ",
"     X++++++++++++++++++++++++++++++++++++++++++++++++++++++++++++++++++++      ",
"      +++++++++++++++++++++++++++++++++++++++++++++++++++++++++++++++++++<      ",
"      O++++++++++++++++++++++++++++++++++++++++++++++++++++++++++++++++++>      ",
"      #++++++++++++++++++++++++++++++++++++++++++++++++++++++++++++++++++       ",
"       %++++++++++++++++++++++++++++++++++++++++++++++++++++++++++++++++1       ",
"       #++++++++++++++++++++++++++++++++++++++++++++++++++++++++++++++++2       ",
"        O++++++++++++++++++++++++++++++++++++++++++++++++++++++++++++++<        ",
"        &++++++++++++++++++++++++++++++++++++++++++++++++++++++++++++++2        ",
"         $++++++++++++++++++++++++++++++++++++++++++++++++++++++++++++1         ",
"          O++++++++++++++++++++++++++++++++++++++++++++++++++++++++++3          ",
"          &@+++++++++++++++++++++++++++++++++++++++++++++++++++++++++2          ",
"           &++++++++++++++++++++++++++++++++++++++++++++++++++++++++4           ",
"            X++++++++++++++++++++++++++++++++++++++++++++++++++++++1            ",
"             X++++++++++++++++++++++++++++++++++++++++++++++++++++<             ",
"              X++++++++++++++++++++++++++++++++++++++++++++++++++<              ",
"               #@+++++++++++++++++++++++++++++++++++++++++++++++1               ",
"                &%+++++++++++++++++++++++++++++++++++++++++++++4                ",
"                  o++++++++++++++++++++++++++++++++++++++++++32                 ",
"                   #%+++++++++++++++++++++++++++++++++++++++1                   ",
"                     $@+++++++++++++++++++++++++++++++++++52                    ",
"                       $@+++++++++++++++++++++++++++++++56                      ",
"                         #O++++++++++++++++++++++++++716                        ",
"                            XO8+++++++++++++++++++914                           ",
"                               .X0qw+++++++++e;r4t                              ",
"                                                                                ",
"                                                                                ",
"                                                                                ",
"                                                                                ",
"                                                                                ",
"                                                                                ",
"                                                                                ",
"                                                                                "
};
