/* XPM */
static char *result[] = {
/* columns rows colors chars-per-pixel */
"64 64 59 1 ",
"  c black",
". c #220066",
"X c #24006B",
"o c #270072",
"O c #2A0075",
"+ c #2D007B",
"@ c #32037D",
"# c #2F0080",
"$ c #330183",
"% c #390585",
"& c #3C0B83",
"* c #360089",
"= c #3B028C",
"- c #3F088B",
"; c #3E0391",
": c #400E84",
"> c #41058E",
", c #420C8D",
"< c #451289",
"1 c #420494",
"2 c #480697",
"3 c #450993",
"4 c #480C94",
"5 c #460699",
"6 c #4B079C",
"7 c #4D0B9D",
"8 c #500B9F",
"9 c #4F0BA1",
"0 c #540CA3",
"q c #590FA7",
"w c #580FA8",
"e c #5711A5",
"r c #5912A6",
"t c #5D12AA",
"y c #5F1AAA",
"u c #6316AE",
"i c #6419AE",
"p c #6617B2",
"a c #6619B1",
"s c #6B1CB4",
"d c #6E1FB8",
"f c #701EB7",
"g c #701FB8",
"h c #6620AD",
"j c #6E21B4",
"k c #6F20B8",
"l c #7023B6",
"z c #7323BA",
"x c #7827BE",
"c c #772DB9",
"v c #792ABC",
"b c #7827C0",
"n c #7929C0",
"m c #7F31C0",
"M c #8335BF",
"N c #8232C2",
"B c #8836C6",
"V c #8638C3",
"C c #8A3BC6",
/* pixels */
"                                                                ",
"                                                                ",
"                                                                ",
"   mvMN8099sssss5135++OO##+#+****$$+$ooooX++##66763564====4<,   ",
"   NNvv8999ssssh;55;#O+O#++#+*$**@$$@ooooX+#+@666633421**-4,,   ",
"   vNNM8999sssss3;;5#+OO##+++****$++$XoooX+++$66663145>*=-4<<   ",
"   5351iaaaewwrr+@+@+ooo;====7777puuu$***$15550000=-=>$@#@<79   ",
"   5355iaiiqeeqr@@@@@++O;;;;;qqq0pppi****@51117777%%%%%&%&@;;   ",
"   5255aiiieerqe@@@@@++@1>>>1qqqepapa***=$512>8777%$$%:&&&@=;   ",
"   5525piaieeeeq@@@@@+++1>===qqqwappa**=*$11117777$*%$=%&%+;=   ",
"   1>>1reee33333@@@@&%**reeer0000pptu====*;>>>iiyy44747%%%O*%   ",
"   =***6555XoooX@@$$6555xxvxx0099tttt1115=***=cccctttui%--#++   ",
"   *$$$4554X%%@%-<-<8222xvvvv9969qttt99771;1>=ccccwrrwt$@$+OO   ",
"   =$*$4456o@%%$<<<&8222cvvvv6889tqtw97771111=ccccwrrrt$$$+OO   ",
"   =$$$5654o&@@%<&::6222vxvvv9979tqtq779711;1=ccccwrrru$$@@OO   ",
"   *+++oooOX@@@@90qqBBBB68889%*=**=*=7644;@@@o>=>=lzjzztqtrOO   ",
"   +@$+o%%#@&&<&4655VVVV48668@#++#+$#;;;,7<4<@1111llllleeeqoO   ",
"   ++++o%$%@<&&&5565VVVV26889++#+$$#$;3;18<<<%1111llllleeerXo   ",
"   @@++o%%%@&&&&5554VCVV77786+++#$$$#;;;=7<<<%2511llllkeeeeoo   ",
"   $$$$O*%%-<44,hhhhchjj$>>>>+++OOOO+===-4<<<%%@*%yyeyyihhi,>   ",
"   ;555%--39111;MMMM4777.OOooXXXo....#+$@=@@@:<<<<1115;jlzzrt   ",
"   =552*3--9115;MMMM7799.OoOooXoX....#@++=@@@:<<<<1111;kjzzrt   ",
"   =555-3-;91511MMMM7797XOoOooXXo.X..+#++-@@@:<<<<>111;kllztt   ",
"   =355=-3;91111MMMV7797.oOooXXXXX...#++#%@@@:<<<<1515;kllzrt   ",
"   quqp5==;aaaia7777+#####+++$$$$Oo+O*#$$#1112@$#@&&&&+;115uu   ",
"   qquq5;;;aiaai7e88o##+#+++O$$#$O+++#*#$#1112@%$+&@&%o5119uu   ",
"   ququ2;;=saiaa8888#####++++$@$$O+o+$#$$$1112$@@$&&%&o;115pp   ",
"   qquq2==;aiaaa8888o####++#+$$$#+O+o$#$$$2112@$&@&&&&+;119up   ",
"   ***=Oooo*$**$33;;;=*;$####OO+O1;=;;;;;;22565535++++oooo+;;   ",
"   $**=OoXX**$$*3;5;====$$$#$++++=>1;;;;;;22565555OO++ooooO*;   ",
"   ****OXoX$$*$$;5;5====%$#$$++++>=;;;;;;162265555+++oooooO;;   ",
"   ****Oooo**$*$5;5;====##$#@++++1;;;;;;;122225559oO+#oooo+*;   ",
"   *$*=Oooo$*@*$;55;-%*&$@@$@@O@+=:>>>===;11125555O+@@ooooo==   ",
"   *==$$ooo====$;;;3;997431,,@@@@88e8lglkzNNNN===*OOOO.OOO+9;   ",
"   ****+ooo==%==;1;;;977433>,@@@@00e8lzzkzNNNN**=*OOOOXOoO#;9   ",
"   ****#Ooo=%==%1;;-399743334@@@@e888llfkdNNNN====OOOOXO+o+55   ",
"   ****#ooO**==*;1;119774,333@@@@0008llzzzNNMM==*=OOOOXOOo+5;   ",
"   3556;===ituutuuuu*==;=43331>11;111xzzzz26686676>1>2*=;;;ww   ",
"   1555;*==uuttuuuuu;;;==3331111111;1zzlzz66686666>>>2*>;;;tt   ",
"   15551===uttutuuuu*;=;;333>111;1111zllzz66668668>11>*>;;;ww   ",
"   16551===uututpupp===;=3333111111;1zzlzz76686667>11;*;;;=wr   ",
"   $*$*+OOO42243vxvntiii5=;;=0000tttttrttiiiuiuqrt+@@#+O+O@51   ",
"   +@$$oX..****$NNBNfzzf5;>1;uqqrasss26670sssduiiiO+++o...o**   ",
"   +$$@O.XX%*$$$NNNBfffz2=;==qqutssis66660sssduiiiO++OoXXXX**   ",
"   +#+$oXX.*$***NNBNfzgz2>>>1tqtrssps56660sssfiiuiO@++o...X**   ",
"   $**$@oXo***$#Nmmmslzz86222000qaspp00900dssaeewwXXXXoooo@;>   ",
"   00qq*##$X....$$$$znbbggggf66969666ddfdgbvnz@++O....X$#$=0q   ",
"   00q0*###X....#$$*znnnxgggg66666699dffsgnbnz+++O....X$##;00   ",
"   0w0w*$$#X....*$$$lnnnzgggf86659996dkkdkbbnl++++.....#$#*w0   ",
"   0000*$$%O....$$$$zvnzkzggf66899599ddksdzbbl+++O....X$$$=qw   ",
"   upppslkk,*#$$....#+##sfzzl66651111tttt9+++o....*$**1BBBBpp   ",
"   upspskzk4#$$$....$$$#jzzzl67661111tttr0++#OX...****3BBBBps   ",
"   upppskll4**#*.X.X+#+$jzzzl26665155wttt9+++oX.X.****3BBBBpp   ",
"   upssskkk4##$#....$$$$jjfzz66661115wttt9++#+.XX.***$1BBBBpp   ",
"   uttuijkk;-;;3Xooo$+$+hzsls2225;1;;w0009oOooXoXX111;3CBCNup   ",
"   6555sxznkkkkk++@+o.X.*****$*$$***$####oXXXX#$*#bbbbnzzlz**   ",
"   6551jzzzkkkkd#+@+o...*****$*$*$*$*+$+#O..XX$$$*bbbxnzzbz**   ",
"   6555zzxxkkkdd++#+o..X*****$$$$***$@#+#OX..X*#$#bbxnnxzxz**   ",
"   2111skkkassss=--=@oXX*******$*****+#+#OXXX+;;;=nnbvzzllz**   ",
"   ;=;=1;;;kzzzzwrrw%+++$$$$@===**===O+++O++##dssdpsppt##$##$   ",
"   ;==;1111zxzzzrwwq=+O+#$##$=====*==O+++O+++*ddddpsspp$$$$$@   ",
"                                                                ",
"                                                                ",
"                                                                "
};
