/* XPM */
static char *_0bdd9057df7458a8dee7e78e975d3633XANTB2Vz5iu2SgD[] = {
/* columns rows colors chars-per-pixel */
"80 80 28 1 ",
"  c None",
". c #CDCDCD",
"X c gray81",
"o c #E4E4E4",
"O c #E7E7E7",
"+ c gray91",
"@ c #E9E9E9",
"# c #EAEAEA",
"$ c gray92",
"% c #ECECEC",
"& c gray93",
"* c #EEEEEE",
"= c #EFEFEF",
"- c gray94",
"; c #F1F1F1",
": c #F3F3F3",
"> c #F4F4F4",
", c gray96",
"< c #F6F6F6",
"1 c gray97",
"2 c #F8F8F8",
"3 c #F9F9F9",
"4 c gray98",
"5 c #FBFBFB",
"6 c gray99",
"7 c #FDFDFD",
"8 c #FEFEFE",
"9 c white",
/* pixels */
"                                                                                ",
"                                                                                ",
"                                                                                ",
"                                                                                ",
"                                                                                ",
"                                                                                ",
"                                                                                ",
"                                                                                ",
"                                                                                ",
"                                                                                ",
"                                                                                ",
"                                                                                ",
"                                                                                ",
"                                                                                ",
"                                                                                ",
"                                                                                ",
"                                                                                ",
"                                                                                ",
"                                                                                ",
"                                    X;7777777;X                                 ",
"                                 &&7777777777777&&                              ",
"                               557777777777777777715                            ",
"                             1777777777777777777777775                          ",
"                            177777777777777777777777771                         ",
"                          o77777777777777777777777777777o                       ",
"                         ;7777777777777777777777777777777;                      ",
"                        77777777777777777777777777777777777                     ",
"                       &77777777777777777777777777777777777;                    ",
"                       5777777777777777777777777777777777777                    ",
"                      777777777777777777777777777777777777775                   ",
"                     &777777777777777777777777777777777777777&                  ",
"                     77777777777777777777777777777777777777777                  ",
"                    1777777777777777777777777777777777777777775                 ",
"                    1777777777777777777777777777777777777777771                 ",
"                   $7777777777777777777777777777777777777777777$                ",
"                   777777777777777777777777777777777777777777777                ",
"                   777777777777777777777777777777777777777777777                ",
"                   777777777777777777777777777777777777777777777                ",
"                  77777777777777777777777777777777777777777777777               ",
"                  77777777777777777777777777777777777777777777777               ",
"                  77777777777777777777777777777777777777777777777               ",
"                  77777777777777777777777777777777777777777777777               ",
"                  77777777777777777777777777777777777777777777777               ",
"                  77777777777777777777777777777777777777777777777               ",
"                  77777777777777777777777777777777777777777777777               ",
"                  ;777777777777777777777777777777777777777777777&               ",
"                   777777777777777777777777777777777777777777777                ",
"                   777777777777777777777777777777777777777777777                ",
"                   o7777777777777777777777777777777777777777777$                ",
"                    7777777777777777777777777777777777777777777                 ",
"                    1777777777777777777777777777777777777777771                 ",
"                    7777777777777777777777777777777777777777777                 ",
"                     57777777777777777777777777777777777777775                  ",
"                      777777777777777777777777777777777777777                   ",
"                      ;7777777777777777777777777777777777777;                   ",
"                       1777777777777777777777777777777777771                    ",
"                        77777777777777777777777777777777777                     ",
"                         777777777777777777777777777777777                      ",
"                          &77777777777777777777777777777;                       ",
"                           57777777777777777777777777775                        ",
"                            &7777777777777777777777777;                         ",
"                              $777777777777777777777&                           ",
"                                &75777777777777777&                             ",
"                                   7&577777775$5                                ",
"                                                                                ",
"                                                                                ",
"                                                                                ",
"                                                                                ",
"                                                                                ",
"                                                                                ",
"                                                                                ",
"                                                                                ",
"                                                                                ",
"                                                                                ",
"                                                                                ",
"                                                                                ",
"                                                                                ",
"                                                                                ",
"                                                                                ",
"                                                                                "
};
