/* XPM */
static char *result[] = {
/* columns rows colors chars-per-pixel */
"64 64 15 1 ",
"  c black",
". c #2F211C",
"X c #4B352D",
"o c #795548",
"O c #896356",
"+ c #FFCCBC",
"@ c #94766C",
"# c #EEBDAD",
"$ c #2B201D",
"% c #1F1917",
"& c #9F7F75",
"* c #AB897E",
"= c #5F4C46",
"- c #DFB2A4",
"; c #634F49",
/* pixels */
"                                                                ",
"                                                                ",
"  .XXXXXXXXXXXXXXXXXXXXXXXXXXXXXXXXXXXXXXXXXXXXXXXXXXXXXXXXXX.  ",
"  XooooooooooooooooooooooooooooooooooooooooooooooooooooooooooX  ",
"  XooooooooooooooooooooooooooooooooooooooooooooooooooooooooooX  ",
"  XooooooooooooooooooooooooooooooooooooooooooooooooooooooooooX  ",
"  XooooooooooooooooooooooooooooooooooooooooooooooooooooooooooX  ",
"  XooooooooooooooooooooooooooooooooooooooooooooooooooooooooooX  ",
"  XoooooOOOOOOOOOOOOOOOOOOOOOOOOOOOOOOOOOOOOOOOOOOOOOOOOoooooX  ",
"  Xooooo++++++++++++++++++++++++++++++++++++++++++++++++oooooX  ",
"  Xooooo++++++++++++++++++++++++++++++++++++++++++++++++oooooX  ",
"  Xooooo++++++++++++++++++++++++++++++++++++++++++++++++oooooX  ",
"  Xooooo++++++++++++++++++++++++++++++++++++++++++++++++oooooX  ",
"  Xooooo++++++++++++++++++++++++++++++++++++++++++++++++oooooX  ",
"  Xooooo++++++++++++++++++++++++++++++++++++++++++++++++oooooX  ",
"  Xooooo++++++++++++++++++++++++++++++++++++++++++++++++oooooX  ",
"  Xooooo++++++++++++++++++++++++++++++++++++++++++++++++oooooX  ",
"  Xooooo++++++++++++++++++++++++++++++++++++++++++++++++oooooX  ",
"  Xooooo++++++++++++++++++++++++++++++++++++++++++++++++oooooX  ",
"  Xooooo++++++++++++++++++++++++++++++++++++++++++++++++oooooX  ",
"  Xooooo++++++++++++++++++++++++++++++++++++++++++++++++oooooX  ",
"  Xooooo++++++++++++++++++++++++++++++++++++++++++++++++oooooX  ",
"  Xooooo++++++++++++++++++++++++++++++++++++++++++++++++oooooX  ",
"  @####$%%%%%%%%%%%%%%%%++++++++++++++++%%%%%%%%%%%%%%%%$####@  ",
"  &++++%                ++++++++++++++++                %++++&  ",
"  &++++%                ++++++++++++++++                %++++&  ",
"  &++++%                ++++++++++++++++                %++++&  ",
"  &++++%                ++++++++++++++++                %++++&  ",
"  &++++%                ++++++++++++++++                %++++&  ",
"  &++++%                ++++++++++++++++                %++++&  ",
"  &++++%                ++++++++++++++++                %++++&  ",
"  &++++%                ++++++++++++++++                %++++&  ",
"  &++++%                ++++++++++++++++                %++++&  ",
"  &++++%                ++++++++++++++++                %++++&  ",
"  &++++%                ++++++++++++++++                %++++&  ",
"  &++++%                ++++++++++++++++                %++++&  ",
"  &++++%                ++++++++++++++++                %++++&  ",
"  &++++%                ++++++++++++++++                %++++&  ",
"  &++++*&&&&&&&&&&&&&&&&================&&&&&&&&&&&&&&&&*++++&  ",
"  &+++++++++++++++++++++                +++++++++++++++++++++&  ",
"  &+++++++++++++++++++++                +++++++++++++++++++++&  ",
"  &+++++++++++++++++++++                +++++++++++++++++++++&  ",
"  &+++++++++++++++++++++                +++++++++++++++++++++&  ",
"  &+++++++++++++++++++++                +++++++++++++++++++++&  ",
"  &+++++++++++++++++++++                +++++++++++++++++++++&  ",
"  &+++++++++++++++++++++                +++++++++++++++++++++&  ",
"  &+++++++++++++++++++++                +++++++++++++++++++++&  ",
"  &+++++++++++++++++++++----------------+++++++++++++++++++++&  ",
"  &++++++++++++++++++++++++++++++++++++++++++++++++++++++++++&  ",
"  &++++++++++++++++++++++++++++++++++++++++++++++++++++++++++&  ",
"  &++++++++++++++++++++++++++++++++++++++++++++++++++++++++++&  ",
"  &++++++++++++++++++++++++++++++++++++++++++++++++++++++++++&  ",
"  &++++++++++++++++++++++++++++++++++++++++++++++++++++++++++&  ",
"  &++++++++++++++++++++++++++++++++++++++++++++++++++++++++++&  ",
"  &++++++++++++++++++++++++++++++++++++++++++++++++++++++++++&  ",
"  &++++++++++++++++++++++++++++++++++++++++++++++++++++++++++&  ",
"  &++++++++++++++++++++++++++++++++++++++++++++++++++++++++++&  ",
"  &++++++++++++++++++++++++++++++++++++++++++++++++++++++++++&  ",
"  &++++++++++++++++++++++++++++++++++++++++++++++++++++++++++&  ",
"  &++++++++++++++++++++++++++++++++++++++++++++++++++++++++++&  ",
"  &++++++++++++++++++++++++++++++++++++++++++++++++++++++++++&  ",
"  ;&&&&&&&&&&&&&&&&&&&&&&&&&&&&&&&&&&&&&&&&&&&&&&&&&&&&&&&&&&;  ",
"                                                                ",
"                                                                "
};
