/* XPM */
static char *result[] = {
/* columns rows colors chars-per-pixel */
"64 64 99 2 ",
"   c gray47",
".  c #816E6E",
"X  c #A84C4C",
"o  c #AD4747",
"O  c #7D7272",
"+  c #9F5454",
"@  c #F20A0A",
"#  c #F80505",
"$  c #955D5D",
"%  c #E51515",
"&  c red",
"*  c #985B5B",
"=  c #EC1010",
"-  c #846C6C",
";  c #BD3939",
":  c #B83737",
">  c #6F6F6F",
",  c #747474",
"<  c gray44",
"1  c #905555",
"2  c #EA0F0F",
"3  c #D42525",
"4  c #CB2323",
"5  c gray42",
"6  c gray45",
"7  c #6C6C6C",
"8  c #8C5252",
"9  c #E80F0F",
"0  c #787777",
"q  c #826E6E",
"w  c #D62323",
"e  c #FB0303",
"r  c #EF0D0D",
"t  c #E01A1A",
"y  c #CE2424",
"u  c #885D5D",
"i  c #D62121",
"p  c #EB0F0F",
"a  c #E21515",
"s  c #AF4646",
"d  c #7B7474",
"f  c #8F6262",
"g  c #935757",
"h  c #8B5555",
"j  c #816F6F",
"k  c #D92121",
"l  c #F70505",
"z  c #CB2B2B",
"x  c #767676",
"c  c #777777",
"v  c gray43",
"b  c #797676",
"n  c #955C5C",
"m  c #AC4747",
"M  c #A24141",
"N  c #805A5A",
"B  c #945D5D",
"V  c #C33434",
"C  c #7A7575",
"Z  c #A15151",
"A  c #8B6565",
"S  c #B83131",
"D  c #DF1B1B",
"F  c #CC2323",
"G  c #8B6464",
"H  c #FB0202",
"J  c #FA0303",
"K  c #CC2C2C",
"L  c #D02424",
"P  c #CB2D2D",
"I  c #7F7070",
"U  c #F00A0A",
"Y  c #B93535",
"T  c #896767",
"R  c #C42828",
"E  c #786161",
"W  c #9E5252",
"Q  c #954B4B",
"!  c #B33737",
"~  c #856A6A",
"^  c #8A5454",
"/  c #DC1D1D",
"(  c #C32929",
")  c #A05252",
"_  c #F50707",
"`  c #DB1F1F",
"'  c #895454",
"]  c #8C6464",
"[  c #807070",
"{  c #716666",
"}  c #9B5050",
"|  c #935C5C",
" . c #BE3838",
".. c #F90404",
"X. c #F10B0B",
"o. c #FD0101",
"O. c #835858",
"+. c #D21F1F",
"@. c #6E6868",
/* pixels */
"                                                                                                                                ",
"                                                                                                                                ",
"    . X o o o o o o o o X .                                                                               O + o o o o o X .     ",
"    X @ # # # # # # # # @ X                                                                               $ % # # # # # @ X     ",
"    o # & & & & & & & & # o                                                                               * = & & & & & # o     ",
"    o # & & & & & & & & # o                             - * * * * * * -                                   * = & & & & & # o     ",
"    o # & & & & & & & & # o                             ; = = = = = = : > > ,                         < > 1 2 & & & & & # o     ",
"    o # & & & & & & & & # o                             3 & & & & & & 4 5 5 6                         7 5 8 9 & & & & & # o     ",
"    o # & & & & & & & & # o                     0 O q q w & & & & & & 4 5 5 6                         7 5 8 9 & & & & & # o     ",
"    o # & & & & & e r = % +                     O ; t t r & & & & & & y > > ,                         < > u i = = p 9 9 a +     ",
"    o # & & & & & r s * $ O                     q t & & & & & & & & & 3                                   d f * * g 8 8 h O     ",
"    o # & & & & & = *                           q t & & & & & & & & & 3                                           6 5 5 7       ",
"    X @ # # # # # % $                           j k # # # l l l l l l z x x c                                     6 7 7 v       ",
"    . X o o o o o + O                           b n o o m M M M M M M N 5 5 6                                                   ",
"                                                        x 5 5 5 5 5 5 5 5 5 6                                                   ",
"                        B V V V V V V B                 x 5 5 5 5 5 5 5 5 5 6   C Z V V V V V V A                               ",
"                  6 5 5 4 & & & & & & 3                                         q t & & & & & & S 5 5 x                         ",
"                  6 5 5 4 & & & & & & 3                                         q t & & & & & & S 5 5 x                         ",
"                  6 5 5 4 & & & & & & D o o n b                                 q t & & & & & & F M M G                         ",
"                  6 5 5 4 & & & & & & H # # k j                                 q t & & & & & & J l l K                         ",
"                  6 5 5 4 & & & & & & & & & t q                                 q t & & & & & & & & & 3                         ",
"                  6 5 5 4 & & & & & & & & & t q                                 q t & & & & & & & & & 3                         ",
"                  x 6 6 L & & & & & & & & & t q                                 q t & & & & & & & & & 3                         ",
"                        3 & & & & & & & & & t q                                 q t & & & & & & & & & 3                         ",
"                        3 & & & & & & & & & t q                                 q t & & & & & & & & & 3                         ",
"                        ; = = = = = = = = = P I                 6 6 6 6 6 6 x   q t & & & & & & U 9 9 Y 6 6 x                   ",
"                        - * * * * * * * * * T b                 5 5 5 5 5 5 6   q t & & & & & & R 8 8 E 5 5 6                   ",
"                                                                5 5 5 5 5 5 6   q t & & & & & & S 5 5 5 5 5 6                   ",
"                                                  c x x W 3 3 3 4 4 4 Q 5 5 6   j k # # # # # # ! 7 7 7 7 7 6                   ",
"                                                  6 5 5 4 & & & & & & 4 5 5 6   b n o o o o o o ~                               ",
"                                                  6 5 5 4 & & & & & & 4 5 5 6                                                   ",
"                                                  6 5 5 4 & & & & & & 4 5 5 6                                                   ",
"                  6 5 5 5 5 5 5                   6 5 5 ^ V V / & & & 3                                                         ",
"                  6 5 5 5 5 5 5                   6 5 5 7     V & & & 3                                                         ",
"                  6 5 5 N M M M o o o o o o n b   6 5 5 7     V & & & 3                                                         ",
"            < 7 7 7 5 5 ( l l l # # # # # # k j   c x x x     B 3 3 3 )                                                         ",
"            > 5 5 5 5 5 4 & & & & & & & & & t q                                                                                 ",
"            > 5 5 5 5 5 4 & & & & & & & & & t q                                                                                 ",
"            , 6 6 6 6 6 L & & & & & & & & & t q                                                                                 ",
"                        3 & & & & & & & & & t q                                                                                 ",
"                        3 & & & & & & & & & t q                           b I q q q q q j b                                     ",
"            , 6 6 ,     3 & & & & & & _ = = P I                           T P t t t t t k n     6 6 6 6 6 6 x                   ",
"            > 5 5 >     3 & & & & & & ` * * T b                           * = & & & & & # o     5 5 5 5 5 5 6                   ",
"            > 5 5 >     3 & & & & & & 3                                   * = & & & & & # o     5 5 5 5 5 5 6                   ",
"      x x x > 5 5 >     K # # # # # # K                 c x x x x x x c   * = & & & & & H D 3 3 ' 5 5 5 5 5 6                   ",
"      7 5 5 5 5 5 >     ] o o o o o o ]                 x 5 5 5 5 5 5 x   * = & & & & & & & & & S 5 5 5 5 5 6                   ",
"      7 5 5 5 5 5 >                                     x 5 5 5 5 5 5 x   * = & & & & & & & & & S 5 5 5 5 5 6                   ",
"      7 5 5 5 5 5 >                                     x 5 5 5 5 5 5 x   * = & & & & & & & & & S 5 5 5 5 5 6                   ",
"      7 5 5 6                                           x 5 5 5 5 5 5 x   [ s V V V V V V V V V A                               ",
"      7 5 5 6                                           x 5 5 5 5 5 5 x                                                         ",
"      7 5 { } o o o o o X .                             G M M M M M M G                             . X o o o o o + O           ",
"      x x | % # # # # # @ X                             K l l l l l l K                             X @ # # # # # % $           ",
"          * = & & & & & # o                             3 & & & & & & 3                             o # & & & & & = *           ",
"          * = & & & & & # o                             3 & & & & & & 3                       [ * *  ...& & & & & = *           ",
"      < > 1 2 & & & & & # o                             3 & & & & & & 3                       s = = X.o.& & & & & 2 1 > <       ",
"      7 5 8 9 & & & & & # o                             3 & & & & & & 3                       V & & & & & & & & & 9 8 5 7       ",
"      7 5 8 9 & & & & & # o                             3 & & & & & & 3                       V & & & & & & & & & 9 8 5 7       ",
"      7 5 O.+.9 9 2 = = % +                             ; = = = = = = ;                       s 9 9 9 9 9 9 9 9 9 +.O.5 7       ",
"      7 5 @.O.8 8 1 * * $ O                             - * * * * * * -                       [ 8 8 8 8 8 8 8 8 8 O.@.5 7       ",
"      7 5 5 5 5 5 >                                                                             5 5 5 5 5 5 5 5 5 5 5 5 7       ",
"      v 7 7 7 7 7 <                                                                             7 7 7 7 7 7 7 7 7 7 7 7 v       ",
"                                                                                                                                ",
"                                                                                                                                ",
"                                                                                                                                "
};
