/* XPM */
static char *result[] = {
/* columns rows colors chars-per-pixel */
"64 64 11 1 ",
"  c gray47",
". c gray43",
"X c #6C6C6C",
"o c gray44",
"O c gray42",
"+ c #6F6F6F",
"@ c #747474",
"# c gray45",
"$ c #777777",
"% c #767676",
"& c #727272",
/* pixels */
"                                                                ",
"                                                                ",
"                                                                ",
"   .XXXXXXXX.                                         oXXXXX.   ",
"   XOOOOOOOOX                                         +OOOOOX   ",
"   XOOOOOOOOX                                         +OOOOOX   ",
"   XOOOOOOOOX                   ++++++@            o++XOOOOOX   ",
"   XOOOOOOOOX                   OOOOOO#            XOOOOOOOOX   ",
"   XOOOOOOOOX                   OOOOOO#            XOOOOOOOOX   ",
"   o++++++++o               $###OOO+++@            o+++++.OOX   ",
"                            %OOOOOO%                     #OOX   ",
"                            %OOOOOO%                     #OOX   ",
"                            %OOOOOO@%%$                  #XX.   ",
"                            %OOOOOOOOO#                         ",
"                            %OOOOOOOOO#                         ",
"                            %OOOOOOOOO#                         ",
"         #OOOOOOOOO%                        %OOOOOO%            ",
"         #OOOOOOOOO%                        %OOOOOO%            ",
"         #OOOOOOOOO%                        %OOOOOO%            ",
"         #OOOOOOOOO%                        $%%%%%%$            ",
"         #OOOOOOOOO%                                            ",
"         #OOOOOOOOO%                                            ",
"         %#########$                                            ",
"                                                                ",
"                                                                ",
"                                ######%         ######%         ",
"                                OOOOOO#         OOOOOO#         ",
"                                OOOOOO#         OOOOOO#         ",
"                         $%%%%%%OOOOOO#         XXXXXX#         ",
"                         #OOOOOOOOOOOO#                         ",
"                         #OOOOOOOOOOOO#                         ",
"                         #OOOOOOOOOOOO#                         ",
"         #OOOOOO         #OOX                                   ",
"         #OOOOOO         #OOX                                   ",
"         #OOOOOO         #OOX                                   ",
"      oXXXOOOOOO         $%%%                                   ",
"      +OOOOOOOOO                                                ",
"      +OOOOOOOOO                                                ",
"      @#########                                                ",
"                                                                ",
"                                                                ",
"      @##@                                      ######%         ",
"      +OO+                                      OOOOOO#         ",
"      +OO+                                      OOOOOO#         ",
"   %%%+OO+                  $%%%%%%$        $%%%OOOOOO#         ",
"   XOOOOO+                  %OOOOOO%        %OOOOOOOOO#         ",
"   XOOOOO+                  %OOOOOO%        %OOOOOOOOO#         ",
"   XOOOOO+                  %OOOOOO%        %OOOOOOOOO#         ",
"   XOO#                     %OOOOOO%                            ",
"   XOO#                     %OOOOOO%                            ",
"   XOO#                     %OOOOOO%                            ",
"   %%%$                     %OOOOOO%                            ",
"                            %OOOOOO%                            ",
"                            %OOOOOO%                            ",
"   o+++++&                  $######$                  &+++++o   ",
"   XOOOOO+                                            +OOOOOX   ",
"   XOOOOO+                                            +OOOOOX   ",
"   XOOOOO+                                      ######.OOOOOX   ",
"   XOOOOO+                                      OOOOOOOOOOOOX   ",
"   XOOOOO+                                      OOOOOOOOOOOOX   ",
"   .XXXXXo                                      XXXXXXXXXXXX.   ",
"                                                                ",
"                                                                ",
"                                                                "
};
